<svg width="143" height="70" viewBox="0 0 143 70" fill="none" xmlns="http://www.w3.org/2000/svg">
<path d="M5.81947 63.9424C5.36098 63.8907 5.03286 63.9336 4.83424 64.0718C4.66975 64.2013 4.58837 64.6117 4.58837 65.3029C4.58837 65.4762 4.59275 65.7527 4.6015 66.1324C4.619 66.4518 4.62337 66.6723 4.61462 66.793C4.528 68.6252 4.48513 69.5448 4.48513 69.5536C4.28651 69.8729 3.7204 70.0199 2.78767 69.9946C1.90657 69.9604 1.37021 69.8432 1.18034 69.6446C0.981723 69.4285 0.886351 68.9446 0.895101 68.193C0.895101 67.9681 0.90385 67.6619 0.92135 67.2725C0.938849 66.884 0.947599 66.6329 0.947599 66.5209C0.947599 65.0606 0.947599 64.3177 0.947599 64.2915C0.895975 63.574 0.71398 63.0516 0.403364 62.7235C0.133871 62.4304 0 62.2318 0 62.1285C0 61.964 0.120747 61.761 0.363115 61.5195C0.630858 61.2431 0.782229 61.0707 0.816353 61.0007C0.954599 60.6726 1.01935 60.1668 1.0106 59.4844C1.0106 59.3032 0.997473 59.0136 0.972098 58.6164C0.954599 58.2454 0.945849 57.968 0.945849 57.7869C0.945849 57.5454 0.937099 57.1088 0.9196 56.4779C0.91085 55.9424 0.91085 55.5277 0.9196 55.2337C0.937099 54.3264 1.0666 53.6395 1.30809 53.1731C1.84357 52.1538 2.7203 51.5964 3.93914 51.5011C6.20271 51.3374 7.74091 51.4144 8.55289 51.7347C9.07088 51.9333 9.50749 52.2745 9.86186 52.7584C10.2162 53.2423 10.428 53.7909 10.4971 54.4042V57.6574C10.4971 59.6532 10.5102 60.7076 10.5356 60.8196C10.5872 61.0094 10.7386 61.2387 10.9888 61.5064C11.2916 61.8179 11.4421 62.0253 11.4421 62.1285C11.4421 62.3271 11.3082 62.552 11.0404 62.8023C10.7465 63.0875 10.5785 63.3036 10.5347 63.4506C10.5085 63.5547 10.4962 64.6388 10.4962 66.7038C10.4962 66.8245 10.5006 67.0966 10.5093 67.5201C10.5268 67.9007 10.5312 68.1939 10.5225 68.4012C10.5137 69.0837 10.414 69.5116 10.2241 69.6839C10.0167 69.8738 9.49874 69.9692 8.66926 69.9692C7.83104 69.9779 7.30868 69.8826 7.10131 69.6839C6.92019 69.5116 6.81169 69.1528 6.77756 68.6086C6.78631 68.6436 6.79069 68.1291 6.79069 67.066C6.79069 65.5024 6.77319 64.5513 6.73907 64.2145C6.5492 64.085 6.24208 63.994 5.81947 63.9424ZM4.549 58.2655C4.5315 58.6111 4.52275 58.8657 4.52275 59.0302C4.514 59.6348 4.57438 60.0067 4.70387 60.145C4.82462 60.2657 5.15711 60.3305 5.70134 60.3392C6.24558 60.348 6.57807 60.2832 6.69969 60.145C6.80381 60.0242 6.84669 59.6698 6.82919 59.0819C6.82919 58.9174 6.82044 58.6759 6.80294 58.3556C6.79419 58.0616 6.78981 57.8586 6.78981 57.7466C6.78981 56.1997 6.75919 55.3833 6.69882 55.2967C6.57807 55.141 6.31033 55.0762 5.89559 55.1025C5.81772 55.1025 5.64097 55.1156 5.36448 55.141C5.15711 55.1585 4.99699 55.1672 4.88499 55.1672C4.69512 55.323 4.58662 55.6423 4.56125 56.1262C4.57 56.0571 4.57438 56.5366 4.57438 57.5647C4.57525 57.7046 4.5665 57.9374 4.549 58.2655Z" fill="#5B320D"/>
<path d="M23.207 66.2628C23.6042 66.2628 23.9586 66.2156 24.2701 66.1202C24.3821 65.7746 24.4302 65.2776 24.4127 64.6301C24.404 64.1034 24.4775 63.7534 24.6332 63.5802C24.789 63.4165 25.2685 63.308 26.0717 63.2564C26.8837 63.2048 27.4279 63.2564 27.7044 63.4122C27.9809 63.5592 28.1401 63.9695 28.1839 64.6433C28.2014 65.0317 28.1751 65.6757 28.106 66.5743C28.0369 67.4992 27.7298 68.2595 27.1855 68.8554C26.6325 69.46 25.9151 69.8144 25.034 69.9185C23.9367 70.0392 22.7179 70.0226 21.3792 69.8669C20.6792 69.789 20.0615 69.5038 19.526 69.0111C18.9817 68.501 18.6659 67.8964 18.5801 67.1964C18.5364 66.8596 18.5364 66.2243 18.5801 65.2916C18.623 64.4971 18.5758 63.8707 18.4375 63.4122C18.4113 63.3168 18.2643 63.1313 17.9965 62.8548C17.7542 62.6133 17.6334 62.3885 17.6334 62.1811C17.6247 61.9912 17.7367 61.7838 17.9703 61.559C18.238 61.2825 18.3938 61.0839 18.4366 60.9631C18.5058 60.782 18.553 60.5702 18.5793 60.3279C18.6484 59.7145 18.6484 58.7127 18.5793 57.3215C18.5014 55.9136 18.5014 54.8847 18.5793 54.2372C18.6571 53.4856 18.9677 52.8591 19.512 52.3577C20.0475 51.8651 20.7002 51.5842 21.4693 51.5151C22.8859 51.3944 24.1651 51.3944 25.3052 51.5151C26.1172 51.6105 26.7778 51.9649 27.2879 52.5782C27.763 53.1575 28.0351 53.8916 28.1042 54.7814C28.26 56.6827 28.1252 57.7493 27.7026 57.9829C27.504 58.0871 27.0202 58.1387 26.2511 58.1387C25.4557 58.1387 24.9596 58.0739 24.761 57.9444C24.5361 57.7887 24.4197 57.3958 24.411 56.765C24.3847 55.8576 24.355 55.3738 24.32 55.3134C24.208 55.1751 23.8746 55.1016 23.3225 55.0929C22.7783 55.0929 22.4458 55.1533 22.3242 55.274C22.1947 55.4035 22.1343 55.8008 22.143 56.4666C22.143 56.6565 22.1518 56.9199 22.1693 57.2567C22.1868 57.5848 22.1955 57.7966 22.1955 57.8919C22.1955 62.4278 22.2087 65.1411 22.234 66.031C22.4248 66.185 22.7494 66.2628 23.207 66.2628Z" fill="#5B320D"/>
<path d="M41.1912 56.465C41.1912 56.6294 41.1956 56.8709 41.2044 57.1903C41.2219 57.5359 41.2306 57.7818 41.2306 57.9288C41.2306 59.7522 41.2437 60.7243 41.2691 60.8451C41.312 61.0096 41.4721 61.2257 41.7486 61.4934C41.9989 61.7437 42.1284 61.9686 42.1371 62.1672C42.1459 62.4095 42.0251 62.6423 41.774 62.8672C41.4887 63.1183 41.3207 63.3204 41.2682 63.4761C41.242 63.5803 41.2297 64.6127 41.2297 66.5736C41.2297 66.703 41.2385 66.9454 41.256 67.2989C41.2735 67.6795 41.2857 67.9683 41.2945 68.1669C41.3032 68.8844 41.2341 69.3507 41.0871 69.5668C40.906 69.8346 40.3618 69.9772 39.4544 69.9947C38.5558 70.0122 37.9941 69.9037 37.7692 69.671C37.5793 69.4723 37.484 69.0147 37.484 68.2973C37.484 68.0899 37.4927 67.7915 37.5102 67.403C37.5365 67.0145 37.5487 66.7512 37.5487 66.612C37.5487 64.772 37.5181 63.7264 37.4577 63.4753C37.4061 63.2854 37.246 63.0693 36.9782 62.8269C36.7446 62.6108 36.6282 62.3903 36.6282 62.1663C36.6282 61.9502 36.749 61.7306 36.9914 61.5057C37.2591 61.2554 37.4149 61.0647 37.4577 60.9352C37.5181 60.7191 37.5487 59.7942 37.5487 58.1615C37.5487 56.6924 37.5181 55.751 37.4577 55.3362C37.2154 55.198 36.7534 55.1332 36.0709 55.142C35.4488 55.1507 35.0472 55.0641 34.8652 54.883C34.6666 54.6931 34.5493 54.1961 34.5152 53.3929C34.4714 52.5634 34.5537 52.0148 34.7611 51.7471C34.8993 51.566 35.1154 51.4575 35.4094 51.4233H41.9026C43.0514 51.4233 43.7042 51.4837 43.8599 51.6045C44.0848 51.7856 44.2143 52.3219 44.2484 53.2118C44.2825 54.1191 44.1705 54.694 43.9116 54.9355C43.7217 55.1 43.3542 55.1735 42.81 55.156C42.0925 55.1472 41.6392 55.1647 41.4494 55.2076C41.2866 55.5104 41.2 55.9286 41.1912 56.465Z" fill="#5B320D"/>
<path d="M53.2913 51.4233C54.0516 51.4233 54.5048 51.4706 54.6518 51.566C54.9108 51.7217 55.0491 52.3867 55.0666 53.5618C55.0666 53.9336 55.0578 54.4044 55.0403 54.9749C55.0228 55.597 55.0141 55.9557 55.0141 56.0502V58.4608C55.0141 59.9124 55.0272 60.699 55.0526 60.8197C55.0955 60.9842 55.2643 61.2038 55.5583 61.4803C55.8261 61.7314 55.9599 61.9467 55.9599 62.1287C55.9687 62.3448 55.8392 62.5697 55.5714 62.8024C55.2774 63.0614 55.1051 63.2775 55.0535 63.4508C55.0272 63.5628 55.015 64.6687 55.015 66.7687C55.015 68.0041 55.015 68.5702 55.015 68.4661C54.9887 69.1836 54.8811 69.615 54.6912 69.762C54.5267 69.8915 54.0385 69.9693 53.2265 69.9956C52.3708 70.0131 51.8309 69.9352 51.606 69.762C51.3121 69.5205 51.1957 68.5309 51.2561 66.794C51.3252 64.807 51.3208 63.6748 51.2429 63.3983C51.1913 63.2084 51.0312 63.0054 50.7634 62.7893C50.5211 62.5907 50.396 62.3877 50.3872 62.1803C50.3785 61.9817 50.5036 61.7612 50.7634 61.5197C51.0574 61.2432 51.2167 61.0533 51.2429 60.9492C51.2771 60.846 51.2946 60.0594 51.2946 58.5903V53.7823C51.2946 52.944 51.3077 52.4427 51.3331 52.2791C51.4197 51.8215 51.648 51.5537 52.0199 51.4758C52.1853 51.4408 52.6088 51.4233 53.2913 51.4233Z" fill="#5B320D"/>
<path d="M67.9191 56.905C67.9708 56.6548 68.1956 55.4359 68.5929 53.2502C68.7652 52.3341 68.9638 51.8074 69.1887 51.6692C69.4223 51.5222 69.9709 51.4574 70.8346 51.4749C71.7157 51.4924 72.2345 51.6 72.3894 51.7987C72.5276 51.9798 72.553 52.3473 72.4673 52.9003C72.441 53.0814 72.3981 53.3019 72.3378 53.5609C72.2599 53.889 72.217 54.071 72.2083 54.1051C72.1216 54.5802 71.979 55.3449 71.7804 56.3993C71.6159 57.3241 71.4733 58.0801 71.3525 58.6672C71.0848 60.0322 70.964 60.8188 70.9894 61.0262C71.0157 61.1732 71.1277 61.3674 71.3263 61.6098C71.4987 61.8346 71.5853 62.0289 71.5853 62.1934C71.5765 62.3579 71.4987 62.5049 71.3517 62.6344C71.3088 62.6781 71.2484 62.7254 71.1705 62.777C71.1014 62.8199 71.0577 62.8505 71.041 62.868C70.6867 63.2048 70.4277 63.7325 70.2632 64.4491C70.2028 64.6914 70.1337 65.0371 70.0558 65.4859C69.9517 66.1168 69.887 66.5096 69.8616 66.6654C69.8441 66.7783 69.7968 67.0197 69.719 67.3907C69.6411 67.7363 69.5851 68.0216 69.5501 68.2465C69.4031 69.0847 69.2517 69.5685 69.0968 69.698C68.8545 69.9054 68.3015 70.0043 67.4379 69.9964C66.5822 69.9877 66.0336 69.8888 65.7921 69.698C65.5847 69.5257 65.4158 69.1066 65.2863 68.4407C65.2513 68.2333 65.2085 67.9393 65.1568 67.5596C65.0965 67.1536 65.0527 66.8727 65.0273 66.717C64.7596 65.1963 64.6257 64.4447 64.6257 64.4622C64.4525 63.7368 64.1804 63.2048 63.8094 62.868C63.7919 62.8592 63.7446 62.8295 63.6667 62.777C63.5889 62.7341 63.5285 62.6904 63.4856 62.6475C63.3211 62.5267 63.2354 62.3929 63.2266 62.2459C63.2091 62.0901 63.3089 61.8915 63.525 61.65C63.7499 61.3823 63.875 61.1749 63.9012 61.0279C63.9187 60.8809 63.798 60.1249 63.5381 58.76C63.2266 57.1273 62.9545 55.6538 62.7218 54.3405C62.7043 54.2363 62.6439 53.9564 62.5406 53.4979C62.454 53.1269 62.4024 52.8373 62.3849 52.6299C62.3333 51.9903 62.5538 51.6237 63.0455 51.5283C63.4428 51.4504 63.9354 51.4294 64.5233 51.4635C65.1883 51.4985 65.6118 51.5974 65.7938 51.7619C65.9408 51.9002 66.1088 52.44 66.2996 53.3824C66.3774 53.8146 66.4807 54.4236 66.611 55.2093C66.7493 56.03 66.8525 56.6268 66.9225 56.9978C67.0862 57.8447 67.255 58.389 67.4283 58.6305C67.556 58.4817 67.7205 57.9077 67.9191 56.905Z" fill="#5B320D"/>
<path d="M82.0544 51.4233C82.7885 51.4495 83.2295 51.5703 83.3765 51.7864C83.4973 51.9509 83.5576 52.2746 83.5576 52.7585C83.5576 52.8968 83.5489 53.1129 83.5314 53.4069C83.5226 53.7009 83.5183 53.917 83.5183 54.0552V58.76C83.5183 59.9867 83.5611 60.7295 83.6478 60.9894C83.7256 61.2055 83.898 61.426 84.1666 61.65C84.3915 61.8399 84.5079 62.0131 84.5166 62.168C84.5254 62.3666 84.4046 62.5827 84.1535 62.8164C83.8682 63.0841 83.7003 63.2915 83.6478 63.4385C83.5436 63.7412 83.4876 64.2207 83.4789 64.8769C83.4701 65.6198 83.5568 66.0608 83.7379 66.199C83.9015 66.3198 84.1176 66.3723 84.3862 66.3548C84.4379 66.3548 84.563 66.3416 84.7625 66.3163C84.9182 66.2988 85.0477 66.29 85.151 66.29C85.298 66.29 85.6479 66.2813 86.2009 66.2638C86.7277 66.2375 87.1468 66.2253 87.4583 66.2253C88.4689 66.234 89.0735 66.3635 89.273 66.6138C89.4628 66.8474 89.5451 67.4004 89.5188 68.2727C89.4838 69.1626 89.3412 69.6814 89.091 69.8284C88.8574 69.9579 88.335 70.0139 87.523 69.9973C87.3157 69.9885 86.9998 69.971 86.5772 69.9457C86.2053 69.9282 85.9551 69.9194 85.8256 69.9194H82.5208C81.8637 69.8249 81.2766 69.4959 80.7586 68.9342C80.2485 68.3724 79.9589 67.7503 79.8906 67.0679C79.8556 66.731 79.8434 66.3119 79.8512 65.8105C79.8687 65.1193 79.8775 64.7308 79.8775 64.6442C79.8687 63.7806 79.6745 63.1663 79.2939 62.8041C78.9999 62.5014 78.8485 62.3027 78.8406 62.2082C78.8406 62.0613 78.9098 61.9274 79.048 61.8066C79.0909 61.7638 79.1434 61.72 79.2038 61.6771L79.2947 61.6255C79.6745 61.2545 79.8862 60.502 79.93 59.3707C79.9387 59.0076 79.9344 58.5115 79.9169 57.8806C79.8994 57.1028 79.8906 56.6277 79.8906 56.4553V54.0963C79.8906 52.93 79.8862 52.3683 79.8775 52.4111C79.9466 51.901 80.1925 51.6035 80.616 51.5169C80.9782 51.4355 81.4577 51.4058 82.0544 51.4233Z" fill="#5B320D"/>
<path d="M101.671 63.9423C101.213 63.8906 100.885 63.9335 100.686 64.0717C100.522 64.2012 100.44 64.6116 100.44 65.3028C100.44 65.4761 100.445 65.7526 100.453 66.1323C100.471 66.4517 100.475 66.6722 100.467 66.7929C100.38 68.6251 100.337 69.5447 100.337 69.5535C100.138 69.8728 99.5723 70.0198 98.6396 69.9945C97.7585 69.9603 97.2221 69.8431 97.0322 69.6445C96.8336 69.4284 96.7382 68.9445 96.747 68.1929C96.747 67.968 96.7557 67.6618 96.7732 67.2724C96.7907 66.8839 96.7995 66.6328 96.7995 66.5208C96.7995 65.0605 96.7995 64.3176 96.7995 64.2914C96.7479 63.5739 96.5659 63.0515 96.2553 62.7234C95.9875 62.4294 95.8536 62.2308 95.8536 62.1275C95.8536 61.9631 95.9744 61.7601 96.2167 61.5186C96.4845 61.2421 96.6359 61.0697 96.67 60.9997C96.8082 60.6716 96.873 60.1659 96.8642 59.4834C96.8642 59.3023 96.8511 59.0126 96.8249 58.6154C96.8074 58.2444 96.7986 57.967 96.7986 57.7859C96.7986 57.5444 96.7899 57.1078 96.7724 56.477C96.7636 55.9415 96.7636 55.5267 96.7724 55.2327C96.7899 54.3254 96.9194 53.6385 97.1608 53.1722C97.6963 52.1528 98.5739 51.5955 99.7919 51.5001C102.055 51.3365 103.594 51.4135 104.406 51.7337C104.924 51.9323 105.36 52.2736 105.715 52.7574C106.069 53.2413 106.281 53.7899 106.35 54.4033V57.6564C106.35 59.6522 106.363 60.7066 106.388 60.8186C106.44 61.0085 106.591 61.2377 106.842 61.5054C107.144 61.8169 107.295 62.0243 107.295 62.1275C107.295 62.3262 107.161 62.551 106.893 62.8013C106.599 63.0865 106.431 63.3026 106.387 63.4496C106.361 63.5538 106.349 64.6379 106.349 66.7028C106.349 66.8235 106.353 67.0957 106.362 67.5192C106.38 67.8998 106.384 68.1929 106.375 68.4003C106.366 69.0827 106.267 69.5106 106.077 69.683C105.869 69.8728 105.351 69.9682 104.521 69.9682C103.683 69.977 103.161 69.8816 102.953 69.683C102.772 69.5106 102.664 69.1519 102.629 68.6076C102.638 68.6426 102.643 68.1281 102.643 67.065C102.643 65.5015 102.625 64.5504 102.591 64.2135C102.402 64.0849 102.095 63.9939 101.671 63.9423ZM100.402 58.2654C100.384 58.611 100.376 58.8656 100.376 59.0301C100.367 59.6347 100.427 60.0066 100.557 60.1449C100.677 60.2656 101.01 60.3303 101.555 60.3391C102.099 60.3478 102.432 60.2831 102.553 60.1449C102.657 60.0241 102.7 59.6697 102.683 59.0818C102.683 58.9173 102.674 58.6758 102.657 58.3555C102.648 58.0615 102.643 57.8585 102.643 57.7465C102.643 56.1996 102.613 55.3832 102.552 55.2966C102.432 55.1409 102.164 55.0761 101.749 55.1024C101.671 55.1024 101.495 55.1155 101.218 55.1409C101.011 55.1584 100.851 55.1671 100.739 55.1671C100.549 55.3229 100.44 55.6422 100.415 56.1261C100.424 56.057 100.428 56.5365 100.428 57.5646C100.427 57.7045 100.418 57.9373 100.402 58.2654Z" fill="#5B320D"/>
<path d="M120.511 56.2048V54.7016C120.511 54.5634 120.498 54.321 120.473 53.9754C120.455 53.5869 120.447 53.3017 120.447 53.1197C120.429 52.4459 120.494 52.0093 120.641 51.8107C120.839 51.5342 121.406 51.4047 122.338 51.4222C123.28 51.431 123.833 51.5911 123.997 51.9017C124.058 52.0137 124.088 52.7531 124.088 54.118V58.7318C124.088 59.9935 124.118 60.7188 124.179 60.9096C124.205 61.005 124.36 61.2211 124.646 61.5579C124.905 61.8694 125.034 62.0891 125.034 62.2185C125.034 62.4172 124.918 62.6245 124.684 62.8407C124.416 63.0918 124.261 63.2641 124.218 63.3595C124.131 63.5756 124.088 64.7507 124.088 66.8848C124.088 67.023 124.093 67.3039 124.101 67.7274C124.11 68.0905 124.11 68.3714 124.101 68.57C124.093 69.1746 124.01 69.5508 123.855 69.6978C123.656 69.8877 123.112 69.9787 122.222 69.97C121.35 69.9525 120.809 69.8623 120.602 69.6978C120.377 69.5167 120.166 69.1064 119.967 68.4668C119.907 68.2944 119.829 68.0214 119.733 67.6504C119.638 67.296 119.565 67.0414 119.513 66.8857C119.012 65.365 118.649 64.4445 118.425 64.1251C118.304 64.3762 118.243 65.3265 118.243 66.9767C118.243 67.0887 118.248 67.3354 118.257 67.7151C118.274 68.052 118.278 68.3198 118.27 68.5184C118.252 69.123 118.153 69.5158 117.971 69.6978C117.798 69.8536 117.311 69.9481 116.507 69.9831C115.677 70.0172 115.137 69.9525 114.887 69.7888C114.662 69.6331 114.537 69.2227 114.511 68.5577C114.502 68.3416 114.502 68.0476 114.511 67.6766C114.52 67.2103 114.524 66.9338 114.524 66.8472V63.5809C114.489 63.3823 114.325 63.1574 114.031 62.9072C113.764 62.6823 113.63 62.4539 113.63 62.2203C113.621 62.0042 113.742 61.7793 113.993 61.5466C114.278 61.2876 114.442 61.0933 114.485 60.963C114.512 60.8588 114.524 60.0731 114.524 58.604V53.8861C114.524 53.005 114.537 52.5037 114.563 52.3829C114.641 51.9078 114.87 51.627 115.25 51.5403C115.604 51.4625 116.071 51.4283 116.65 51.4362C117.255 51.4537 117.665 51.5185 117.881 51.6305C118.166 51.7862 118.43 52.2184 118.671 52.9263C118.74 53.1337 118.827 53.4233 118.93 53.7943C119.034 54.1574 119.107 54.3989 119.151 54.5196C119.773 56.3256 120.149 57.3239 120.279 57.5138C120.407 57.3677 120.485 56.9311 120.511 56.2048Z" fill="#5B320D"/>
<path d="M136.02 51.4233C137.956 51.4233 139.096 51.4837 139.441 51.6045C140.461 51.9676 141.109 52.7061 141.386 53.8208C141.541 54.4516 141.619 55.7903 141.619 57.8387C141.619 59.7137 141.637 60.7156 141.671 60.8451C141.697 60.9746 141.84 61.1776 142.099 61.4541C142.349 61.7218 142.478 61.9292 142.487 62.0762C142.496 62.2748 142.371 62.5128 142.111 62.7893C141.817 63.092 141.653 63.3204 141.618 63.4761C141.541 63.848 141.523 64.3494 141.567 64.9793C141.618 65.7134 141.636 66.1851 141.618 66.3924C141.541 67.4293 141.238 68.25 140.711 68.8546C140.167 69.4942 139.406 69.8573 138.43 69.9431H135.164C135.06 69.9431 134.818 69.9518 134.437 69.9693C134.066 69.9868 133.768 69.9956 133.543 69.9956C132.8 69.9956 132.338 69.9046 132.156 69.7235C131.983 69.5511 131.893 69.1276 131.884 68.453C131.884 68.2456 131.893 67.9473 131.911 67.5588C131.919 67.1265 131.924 66.829 131.924 66.6646C131.924 64.6259 131.911 63.5496 131.885 63.4376C131.85 63.3081 131.7 63.1183 131.432 62.8672C131.19 62.6423 131.064 62.4095 131.056 62.1672C131.056 61.9773 131.163 61.7787 131.379 61.5713C131.638 61.3211 131.79 61.1225 131.833 60.9755C131.893 60.7856 131.924 60.0427 131.924 58.746V52.3176C132.01 51.8171 132.312 51.5318 132.831 51.4618C133.065 51.4356 134.128 51.4233 136.02 51.4233ZM135.579 56.3092C135.579 56.4737 135.584 56.7021 135.592 56.9961C135.61 57.3417 135.619 57.5753 135.619 57.696V63.4376C135.619 64.9155 135.679 65.8097 135.8 66.1203C135.86 66.1291 136.012 66.1553 136.253 66.1982C136.495 66.2411 136.685 66.2717 136.824 66.2892C137.316 66.3329 137.64 66.2463 137.796 66.0302C137.925 65.8657 137.977 65.4728 137.951 64.8507C137.951 64.7037 137.938 64.4447 137.912 64.0729C137.894 63.7622 137.886 63.533 137.886 63.386V57.8387C137.886 56.3608 137.843 55.4797 137.756 55.1945C137.497 55.0475 136.875 55.0177 135.89 55.1035C135.7 55.3887 135.597 55.7903 135.579 56.3092Z" fill="#5B320D"/>
<path d="M136.872 43.1888C135.977 42.6 131.458 39.6215 130.405 38.9312C129.233 38.1647 129.798 38.1647 128.345 37.3974C126.893 36.63 124.794 36.2258 124.228 35.419C123.663 34.6123 123.864 34.5301 122.855 33.6822C121.845 32.8344 121.119 32.2297 120.514 31.6645C119.908 31.0993 119.867 30.9768 119.504 30.3722C119.142 29.7658 118.898 28.9591 118.698 28.5146C118.495 28.0701 117.729 27.868 116.517 27.2223C115.307 26.5774 114.216 25.607 113.491 25.0821C112.763 24.558 112.844 25.2028 112.238 23.8308C111.633 22.4589 111.633 21.8114 111.31 21.408C110.986 21.0047 109.817 20.4806 108.887 20.1568C107.96 19.8331 107.474 18.8242 106.506 17.6133C105.537 16.4032 103.922 14.949 103.276 14.7871C102.629 14.6252 100.047 15.3523 99.1173 16.2413C98.1898 17.1285 97.825 17.7751 96.4119 18.3404C94.9988 18.9056 94.7162 19.1882 93.4256 19.309C92.1333 19.4297 90.6388 20.6416 89.5495 20.8428C88.4601 21.0449 88.0567 21.0449 87.369 21.1254C86.9499 21.1753 85.9761 21.0301 85.1894 20.7973C85.7232 19.218 86.0119 17.5258 86.0119 15.7688C86.0119 7.07418 78.9369 0 70.2414 0C61.5432 0 54.469 7.07418 54.469 15.7706C54.469 18.6466 55.2434 21.3468 56.5961 23.6725C55.9302 23.4852 54.3588 23.228 54.1313 23.1921C54.112 23.1886 54.0972 23.1956 54.084 23.2079C53.9598 23.3347 53.2817 24.0286 52.7698 24.3567C52.2046 24.7207 50.6708 25.9317 50.1869 26.2957C49.7022 26.6579 48.8543 27.5469 48.8132 27.7481C48.7738 27.9502 47.562 28.6371 47.0379 28.4341C46.5138 28.2329 46.1489 27.7892 45.2608 27.5862C44.3736 27.385 43.7681 26.8198 42.7584 26.8198C41.7486 26.8198 40.0144 28.3536 38.884 28.5951C37.7535 28.8383 37.5103 28.8777 35.7752 29.9688C34.0383 31.0582 32.5045 32.4712 31.4957 33.0365C30.4859 33.6017 30.1237 33.8843 29.3966 34.4084C28.6695 34.9325 29.7588 34.3279 27.3771 35.6203C24.9955 36.9109 22.0074 38.4053 19.3842 39.5769C16.7593 40.7468 14.5798 41.3522 13.6916 41.7565C12.9698 42.0846 11.0746 42.8931 10.3904 43.1836C10.3335 43.2072 10.3527 43.2903 10.4122 43.2903H136.841C136.895 43.2912 136.917 43.2203 136.872 43.1888ZM56.1954 15.7706C56.1954 8.02616 62.4961 1.7272 70.2405 1.7272C77.984 1.7272 84.2839 8.02616 84.2839 15.7706C84.2839 17.0944 84.1001 18.3736 83.7562 19.589C83.6854 19.5058 83.5681 19.4052 83.3712 19.2705C82.6039 18.7464 81.9975 18.7866 81.6344 18.3832C81.2722 17.9781 80.7454 17.4129 80.2625 16.6875C79.7777 15.9604 79.7366 15.7172 79.4146 15.5571C79.1057 15.4031 76.3609 15.4696 76.1212 15.4757C76.1089 15.4757 76.0993 15.4792 76.0897 15.4871C75.9471 15.5956 74.7274 16.5047 74.0046 16.8092C73.2373 17.1312 70.5336 18.2223 69.5239 18.2223C68.5282 18.2223 66.9821 20.3432 66.9409 20.4001C66.9392 20.4018 66.9392 20.4018 66.9374 20.4036C66.9077 20.4368 66.2926 21.1088 64.7579 21.8963C63.1847 22.703 61.6902 24.278 61.2457 24.5606C60.8012 24.8432 60.5597 25.0444 60.3585 24.8432C60.1791 24.6638 59.2814 23.9857 59.0714 23.8256C59.046 23.8081 59.0119 23.8133 58.9944 23.837C58.9664 23.8746 58.9209 23.9323 58.8605 23.9971C57.185 21.6828 56.1954 18.84 56.1954 15.7706ZM65.184 41.2324H51.0426C50.991 41.2324 50.9674 41.1694 51.005 41.1353C51.3034 40.8763 52.0996 40.1842 52.1652 40.1019C52.2457 40.0013 52.6893 39.7379 53.2756 39.1534C53.8609 38.5681 53.9204 38.7299 54.2643 38.0825C54.6064 37.4376 55.1918 36.2249 55.3134 36.0446C55.4341 35.8626 54.3247 36.952 53.6588 37.3554C52.993 37.7587 52.0436 38.4263 51.5799 38.6879C51.1153 38.9504 51.2561 39.0502 50.4293 39.2532C49.6015 39.4544 49.6015 39.5953 49.0573 40.0809C48.5533 40.528 47.7921 41.13 47.6775 41.221C47.6679 41.2289 47.6573 41.2324 47.6442 41.2324H43.118C43.0611 41.2324 43.041 41.1589 43.0882 41.13C43.5187 40.8666 44.6658 40.1553 45.2818 39.7187C46.0491 39.1727 46.029 39.1928 46.5531 38.6888C46.8987 38.3572 47.2942 38.009 47.5261 37.8077C47.5716 37.7683 47.5305 37.6966 47.4727 37.7132C46.9075 37.8812 45.5557 38.282 45.301 38.3441C44.9773 38.4255 45.0184 38.5261 44.2712 38.6267C43.5257 38.7291 42.516 39.1114 43.2632 38.7886C44.0087 38.4648 45.2214 37.8812 45.8068 37.2136C46.3904 36.5477 46.7754 36.1855 47.0781 35.7804C47.38 35.377 47.2794 35.4794 48.0861 34.5904C48.8946 33.7015 49.2577 33.3191 49.5403 33.0365C49.7617 32.8151 50.3899 31.815 50.6533 31.3915C50.683 31.3416 50.6279 31.283 50.578 31.3145C50.2779 31.4939 49.6882 31.8658 49.1982 32.2691C48.5105 32.8344 47.9058 33.3996 47.0974 33.9849C46.2906 34.5703 44.9782 35.4987 44.2922 35.9038C43.6062 36.3071 42.1931 37.659 40.7389 38.0623C39.2865 38.4657 39.0432 38.5681 37.8532 39.2541C36.6615 39.94 36.0569 40.6059 35.4304 40.7083C34.8039 40.8089 34.503 40.7275 33.3112 40.6671C32.1195 40.6059 31.696 40.6873 30.9497 40.7083C30.3074 40.724 31.6015 39.1648 31.9795 38.7221C32.0136 38.6827 31.9813 38.6232 31.9297 38.6311C31.5525 38.6923 30.5673 38.8542 30.0817 38.9513C29.4753 39.0721 29.0519 39.2138 28.7281 39.2541C28.4061 39.2952 28.9101 39.1534 29.4552 38.6276C30.0003 38.1035 30.0817 37.841 30.2829 37.4577C30.4851 37.0727 30.4054 36.9117 30.8683 36.5486C31.3329 36.1864 32.0399 35.6395 32.242 35.4182C32.4433 35.1968 32.5439 34.2798 34.0173 33.3051C35.4917 32.3304 36.0569 32.1274 36.581 31.724C37.0001 31.402 37.7272 30.8858 38.0046 30.6924C38.0457 30.6627 38.0991 30.6985 38.0912 30.7475C38.03 31.0739 37.8681 31.9016 37.771 32.0477C37.6502 32.2297 36.217 33.1983 35.874 33.3795C35.5302 33.5615 36.9634 32.9962 37.7517 33.3795C38.5383 33.7645 37.5085 33.7846 36.763 34.1879C36.0158 34.5913 35.5713 35.3578 34.9054 35.8023C34.2378 36.2468 33.4924 36.8934 33.1284 37.0535C32.9149 37.1489 32.6935 37.3221 32.5474 37.4472C32.5036 37.4866 32.5413 37.5583 32.5973 37.5426C33.0671 37.4201 34.1722 37.1252 34.643 36.952C35.2476 36.7306 36.2774 36.3868 36.6396 36.1654C37.0036 35.9423 36.7805 36.448 36.3177 36.9319C35.853 37.4166 35.3079 38.2443 34.8022 38.7291C34.3437 39.1683 33.8992 39.5437 33.824 39.6102C34.02 39.4999 36.931 37.8611 37.7097 37.2959C38.5165 36.7105 39.2235 36.3666 39.5061 36.2459C39.7887 36.1251 39.9908 36.5898 39.9506 36.7306C39.9103 36.8715 39.9121 37.2967 41.1239 36.2056C42.334 35.1163 44.4129 34.2886 45.2809 33.2587C46.1489 32.2306 46.8349 31.6838 47.1787 31.241C47.5209 30.7965 47.6433 31.1387 47.6433 31.1999C47.6433 31.2594 48.2086 30.9978 48.5306 30.6145C48.8543 30.2313 50.046 29.219 50.347 29.0291C50.6498 28.8392 51.4976 28.092 51.7006 27.7271C51.9019 27.3649 51.2771 29.9076 50.9735 30.3118C50.6708 30.7152 52.4277 28.9398 52.7305 28.4148C53.0323 27.889 53.2546 27.0613 53.7384 26.3954C54.2232 25.7295 56.1219 24.5588 57.15 26.2545C58.1798 27.9502 55.1323 30.6145 54.7482 31.059C54.3649 31.5035 53.2143 32.9367 52.9116 33.1782C52.6246 33.4075 52.3918 33.6936 52.3682 33.7216C52.4373 33.6936 54.6554 32.7434 55.1926 32.4984C55.7378 32.249 56.5462 32.1283 56.6057 32.1895C56.667 32.249 56.0606 33.4206 55.8585 33.6026C55.7124 33.7347 55.4193 34.0864 55.2679 34.2711C55.2346 34.3122 55.2696 34.3717 55.3213 34.3603C55.6905 34.2877 56.6416 34.0821 56.9496 33.8231C57.3328 33.5011 57.8981 33.278 58.6654 33.1782C59.4319 33.0776 60.2999 32.9761 60.3795 33.117C60.4609 33.2587 60.3401 34.4706 59.7346 34.9745C59.1397 35.4707 58.4476 36.4349 58.4222 36.4673C58.4222 36.469 58.4222 36.469 58.4222 36.469C58.3907 36.5049 57.3276 37.764 57.0091 38.0422C56.807 38.2216 56.4815 38.6249 56.2697 38.8979C56.2304 38.9478 56.2916 39.0143 56.345 38.9784C56.8446 38.6346 57.8666 37.9285 58.3014 37.6003C58.8868 37.1559 58.766 37.015 59.655 36.5504C60.5422 36.0858 61.0865 35.7436 61.3901 35.3998C61.6928 35.0577 62.1575 35.8443 61.8346 36.5714C61.5108 37.2985 60.4827 39.0738 60.0181 39.4177C59.5535 39.7598 59.0084 40.3863 58.9288 40.4458C58.8474 40.507 59.8361 40.6278 60.887 40.1238C61.9361 39.618 62.1793 39.1946 63.0473 39.4177C63.9135 39.639 64.2574 39.8412 64.561 40.2043C64.7981 40.4886 65.1087 40.9576 65.233 41.1493C65.2549 41.1842 65.2277 41.2324 65.184 41.2324ZM107.809 41.2324H96.1065C96.0873 41.2324 96.0689 41.221 96.0593 41.2061C95.3436 40.0284 95.0513 39.6014 94.8098 39.2278C94.5683 38.8507 94.6497 39.0931 94.1912 37.9092C93.7345 36.7236 93.8141 36.6702 93.3574 35.9431C92.8989 35.216 92.7659 35.083 92.415 34.5441C92.1683 34.1661 91.5654 33.5238 91.2268 33.1738C91.1848 33.1283 91.1104 33.1773 91.1375 33.2351C91.309 33.6131 91.582 34.2964 91.6888 35.0279C91.8506 36.1313 91.9303 36.9214 91.9574 37.5225C91.9845 38.1236 91.0973 37.477 90.3431 36.3745C89.5897 35.2712 88.797 34.5169 88.3175 34.0322C87.8389 33.5483 87.5431 33.3051 86.6017 32.0416C85.6593 30.7764 85.256 30.1841 84.5288 29.5112C83.8017 28.8392 83.667 28.8926 82.9679 28.057C82.4683 27.462 81.9958 27.0306 81.6493 26.6474C81.5093 26.4934 81.3903 26.3473 81.2993 26.2012C81.1672 25.992 81.2853 26.2799 81.5303 26.7708C81.8855 27.4847 82.5103 28.6362 83.0221 29.3222C83.8822 30.4789 84.6907 32.0661 85.2017 33.3051C85.7136 34.5441 85.5788 35.0559 86.6822 36.0245C87.7855 36.9931 88.4592 37.0999 89.2397 38.3117C89.6982 39.0231 90.1611 40.3845 89.9589 41.1895C89.9528 41.2149 89.9292 41.2315 89.9038 41.2315H87.8599C87.8441 41.2315 87.8284 41.2254 87.8179 41.2122C87.0076 40.2515 86.0985 38.1568 86.0111 37.6922C85.9262 37.246 85.9078 38.1367 85.9043 38.5357C85.9026 38.5908 85.8334 38.6127 85.8019 38.5672C85.6278 38.3047 85.2481 37.715 84.8535 36.966C84.3153 35.9423 84.8806 36.1575 83.8569 35.027C82.8349 33.8966 82.9968 34.1932 82.1883 33.0093C81.3816 31.8238 80.574 30.6137 80.5477 30.5332C80.5573 30.604 80.9152 32.0329 81.7578 33.439C82.6468 34.9194 83.1035 35.888 83.4535 37.1804C83.8035 38.4727 83.9654 39.3057 83.9916 40.0065C84.0108 40.493 83.156 40.8623 82.9346 41.2061C82.9233 41.2219 82.9075 41.2315 82.8891 41.2315H78.6814C78.6691 41.2315 78.6543 41.2271 78.6455 41.2175C78.3375 40.9541 78.0619 40.7056 77.9088 40.5455C77.424 40.0337 77.4774 39.7099 77.1283 39.2269C76.7783 38.7422 75.8631 37.3965 75.3827 36.5075C75.0231 35.8416 74.8061 35.0235 74.7221 34.6578C74.7081 34.5948 74.6171 34.6009 74.6119 34.6657C74.5996 34.8275 74.6084 35.1198 74.6792 35.6465C74.8394 36.8566 75.5131 39.4947 75.6478 40.3014C75.6933 40.5761 75.7607 40.8789 75.8316 41.1615C75.8412 41.1974 75.8141 41.2306 75.7782 41.2306H68.6349C68.5955 41.2306 68.5693 41.1947 68.5815 41.1571C68.7276 40.7424 69.4714 38.6888 70.0699 38.5261C70.5362 38.3992 71.2695 39.0931 71.6667 39.52C71.7122 39.5673 71.7874 39.5139 71.7577 39.4553C71.5932 39.1394 71.3447 38.6984 71.119 38.4254C70.7357 37.9608 70.2912 36.5276 70.2711 36.3063C70.2519 36.0831 69.3436 35.1557 69.0199 34.6911C68.6979 34.2264 69.4434 33.2368 69.9491 32.6532C70.4531 32.0679 71.2205 32.6725 71.9869 32.8134C72.5032 32.9078 73.2206 33.4066 73.6336 33.7207C73.6835 33.7601 73.75 33.6988 73.7141 33.6455C73.5619 33.4206 73.3641 33.096 73.1988 32.7127C72.9774 32.2026 72.616 31.815 72.2477 31.4143C72.0762 31.2288 71.9038 31.0407 71.7454 30.835C71.5083 30.5323 71.3228 30.1631 71.1286 29.7859C70.9116 29.3633 70.6823 28.9285 70.3534 28.5548C69.7269 27.8487 69.8292 27.3833 69.5055 26.6159C69.1818 25.8494 72.4935 21.4693 73.0177 21.3284C73.5418 21.1875 73.8244 21.8525 74.31 22.5184C74.6084 22.9296 74.8831 23.2402 75.0494 23.4179C75.0905 23.4599 75.1605 23.4214 75.1438 23.3645C75.0415 23.0285 74.8954 22.4536 75.1579 22.5998C75.5201 22.801 75.9445 23.4677 76.5911 24.1931C77.2359 24.9202 77.4783 25.747 77.8624 26.5949C77.9429 26.769 78.0978 27.0044 78.2955 27.2669C78.6079 27.6816 79.0252 28.1664 79.412 28.5916C79.7243 28.9416 80.0166 29.2522 80.21 29.4569C80.2537 29.5042 80.3281 29.4526 80.301 29.3957C80.1522 29.0833 79.9177 28.6091 79.7515 28.3422C79.7174 28.2889 79.6859 28.2451 79.6587 28.2101C79.5161 28.0307 79.3446 27.3955 79.0742 26.6798C78.8861 26.1837 78.6516 25.6499 78.3454 25.2028C77.5999 24.1135 77.9009 24.1931 77.7206 23.4065C77.5387 22.6199 77.1353 22.3766 76.4082 21.1455C75.6811 19.9145 75.0362 18.1374 76.3469 17.23C77.6594 16.3209 79.314 17.8959 79.496 18.1986C79.678 18.5014 80.3027 19.288 80.6063 20.1971C80.9091 21.1044 81.1121 20.8831 82.1813 21.6303C82.4009 21.7825 82.5846 21.9663 82.7404 22.1675C83.1893 22.7371 83.4281 23.4502 83.681 24.012C83.7737 24.2193 83.8691 24.4057 83.9776 24.5571C84.4833 25.2632 84.8456 26.1522 85.3907 27.4034C85.7836 28.3046 86.6997 29.3519 87.1441 29.8306C87.1861 29.8761 87.2588 29.8288 87.2369 29.7711C87.0672 29.3554 86.8178 28.6388 86.7032 28.2512C86.5413 27.7061 85.8964 26.5354 85.3714 25.0016C84.9506 23.774 84.9322 22.752 84.941 22.3941C84.9427 22.3425 85.004 22.3206 85.0381 22.3583C85.2122 22.556 85.5911 22.9812 85.7136 23.1037C85.8754 23.2656 87.4093 24.6787 87.8126 25.0821C88.216 25.4854 88.7016 26.2537 88.9431 27.7464C89.1863 29.2408 89.5495 29.6853 89.9117 30.5725C90.1786 31.2226 90.5741 31.8509 90.7674 32.1414C90.7989 32.1904 90.8742 32.1615 90.868 32.1037C90.8462 31.8859 90.7893 31.5009 90.6388 30.9768C90.4428 30.2873 90.5128 29.0107 90.5461 28.5592C90.5496 28.5058 90.6187 28.4866 90.6484 28.533C90.8225 28.8042 91.232 29.4517 91.6896 30.2112C92.296 31.2209 93.1439 32.1484 93.9095 32.8755C94.6768 33.6026 95.3637 34.4093 95.8878 34.9745C96.4119 35.5398 96.9771 36.4288 97.5424 37.3169C98.1076 38.2041 99.8444 39.4964 99.4813 39.0126C99.1173 38.5278 98.9161 38.2452 98.6335 37.477C98.4138 36.8785 97.9457 35.6903 97.7524 35.1977C97.7305 35.1425 97.7979 35.0953 97.8399 35.1347C98.1085 35.3735 98.6641 35.8504 99.3991 36.3876C100.449 37.155 100.166 37.0342 101.293 37.9215C102.419 38.8104 102.589 38.6486 103.921 39.3346C105.016 39.898 107.115 40.815 107.833 41.1256C107.888 41.1493 107.871 41.2324 107.809 41.2324ZM129.727 41.2324H125.659C125.653 41.2324 125.647 41.2306 125.641 41.2289C124.912 41.0075 124.052 40.6855 123.313 40.2489C121.671 39.2803 121.536 39.0922 121.026 38.6066C120.514 38.1227 121.833 38.6879 122.156 38.7684C122.478 38.8498 122.273 38.5269 120.908 37.3694C119.818 36.4445 117.898 34.9343 117.17 34.3656C117.12 34.3262 117.053 34.3874 117.089 34.4408C117.546 35.0988 118.593 36.6265 118.656 36.8566C118.737 37.1532 117.473 36.1033 117.041 35.8075C116.611 35.5109 114.647 33.9771 113.812 33.0347C112.978 32.0924 112.278 31.4738 111.766 31.0687C111.256 30.6653 110.636 30.3153 110.044 29.8314C109.453 29.3467 108.645 28.7815 108.322 28.4595C108.067 28.2031 107.893 28.0307 107.834 27.9747C108.055 28.2495 109.925 30.5655 110.609 31.528C111.336 32.55 113.005 34.0838 113.57 34.7838C114.135 35.4838 115.104 36.4524 115.723 37.6362C116.567 39.2514 117.864 40.892 116.535 41.0215C116.052 41.0688 115.582 40.8675 115.252 40.514C114.94 40.1798 114.61 39.8989 114.378 39.52C114.083 39.0362 113.759 38.5514 113.518 38.2015C113.274 37.8515 112.521 37.2329 112.252 36.5871C111.992 35.9606 111.454 35.1329 111.42 35.083C111.454 35.1802 112.18 37.1944 112.494 37.8506C112.818 38.5243 113.168 38.5506 113.302 39.4124C113.407 40.0862 113.56 40.8588 113.169 41.2131C113.159 41.2245 113.143 41.2289 113.129 41.2289H110.56C110.541 41.2289 110.524 41.2192 110.513 41.2035C110.419 41.0556 109.874 40.269 108.563 39.492C107.11 38.6319 106.625 38.443 106.087 37.5811C105.548 36.7192 105.171 36.7472 105.011 35.5354C104.881 34.5624 104.855 33.8143 104.851 33.5588C104.849 33.5168 104.806 33.4915 104.768 33.5116C104.572 33.6227 104.06 33.8756 103.719 33.705C103.287 33.4897 103.881 31.7406 104.257 31.0678C104.634 30.3958 104.794 29.8577 105.01 29.5602C105.226 29.2653 105.332 28.7535 105.332 28.7535C105.332 28.7535 104.069 30.1806 103.368 30.6644C102.668 31.1492 101.528 32.0381 101.291 32.1982C101.054 32.3601 100.945 32.5482 101.054 31.6881C101.16 30.8263 101.188 29.1577 101.457 28.7272C101.625 28.4586 101.719 28.0001 101.766 27.6939C101.777 27.6326 101.695 27.6064 101.664 27.658C101.486 27.9581 101.148 28.407 100.676 28.512L100.002 28.6625C99.9704 28.6686 99.9389 28.6485 99.9345 28.617C99.9065 28.4612 99.8768 27.9406 100.217 26.4925C100.648 24.6621 100.541 24.6901 100.729 24.3935C100.917 24.0968 102.425 25.3358 102.855 25.712C103.286 26.0892 103.582 25.9535 104.227 26.6544C104.737 27.2074 105.753 27.6589 106.157 27.826C106.208 27.8461 106.255 27.7884 106.224 27.7429C105.807 27.1444 104.247 24.9359 103.528 24.2858C102.692 23.5325 102.559 23.4791 102.074 22.8071C101.589 22.1334 101.24 21.38 101.159 21.1919C101.085 21.0178 100.333 19.7631 100.218 19.5732C100.208 19.5575 100.208 19.54 100.215 19.5242C100.317 19.2932 101.078 17.5966 101.434 17.391C101.817 17.1679 102.927 16.6438 103.857 17.9151C104.785 19.1865 105.088 19.8733 105.33 20.6591C105.573 21.4474 105.895 22.6575 106.219 23.3435C106.542 24.0312 106.784 24.0496 106.925 24.9184C107.022 25.5213 107.286 26.132 107.438 26.4505C107.465 26.5057 107.545 26.4864 107.545 26.4252C107.535 26.0235 107.521 25.1976 107.551 24.4136C107.591 23.3242 107.531 23.1422 107.692 22.6978C107.795 22.4108 107.926 22.1526 108.004 22.0074C108.028 21.9663 108.089 21.9698 108.105 22.0153C108.158 22.1658 108.307 22.4615 108.72 22.9602C109.388 23.767 108.841 23.3837 109.871 24.3733C110.901 25.3621 110.921 25.9684 111.687 26.5931C112.455 27.2196 112.393 27.3404 113.141 27.7044C113.889 28.0675 114.211 28.4673 114.655 29.0247C115.1 29.5803 115.14 29.7623 115.746 31.1553C116.201 32.2026 116.531 33.0802 116.666 33.4503C116.686 33.502 116.763 33.4976 116.774 33.4407C116.855 33.0198 117.032 32.0399 117.018 31.6794C116.997 31.2165 117.724 32.6086 117.925 32.8099C118.127 33.012 120.206 34.1634 120.974 35.1723C121.741 36.182 121.923 36.665 123.254 37.5129C124.586 38.3607 126.403 38.8454 126.726 39.0668C127.005 39.2584 129.163 40.7249 129.753 41.1265C129.804 41.1624 129.782 41.2324 129.727 41.2324Z" fill="#5B320D"/>
<path d="M105.866 31.4264C105.817 31.3906 105.753 31.4483 105.786 31.4999C106.165 32.115 107.154 33.732 107.332 34.187C107.555 34.7522 108.039 34.8528 108.866 35.5196C109.694 36.1854 109.916 36.4278 110.36 36.9327C110.804 37.4375 111.753 38.386 111.349 37.6186C110.945 36.8513 110.723 36.5888 110.218 35.7208C109.713 34.8528 109.35 34.5903 108.865 34.1056C108.381 33.6209 108.22 33.6812 107.809 33.0959C107.491 32.6426 106.357 31.7869 105.866 31.4264Z" fill="#5B320D"/>
<path d="M78.7155 35.4602C78.3121 34.895 78.3121 35.2721 78.0707 33.9264C77.8274 32.5789 77.0469 31.5307 76.5762 30.5884C76.5246 30.4851 76.4677 30.3827 76.41 30.2856C76.0836 29.7379 75.6653 29.2741 75.3145 28.8682C75.1579 28.6862 75.0126 28.5164 74.8954 28.3545C74.464 27.7631 74.0598 27.036 73.7387 26.4436C73.5208 26.0464 73.1699 25.5756 72.9643 25.3096C72.9267 25.2606 72.8497 25.2983 72.8672 25.3586C73.0667 26.0875 73.6398 28.1157 73.9268 28.4893C74.2356 28.8962 74.1998 28.5584 74.4841 29.1595C74.52 29.2348 74.5611 29.324 74.6084 29.4308C74.7982 29.8656 75.0319 30.2804 75.2979 30.7117C75.6225 31.2393 75.9917 31.7932 76.3767 32.4451C77.0749 33.6289 77.2736 34.8679 77.3768 35.3246C77.4792 35.7813 77.8292 36.3746 78.2876 36.9932C78.6455 37.477 79.7112 38.786 80.1592 39.3329C80.1986 39.3801 80.2756 39.3372 80.2546 39.2777C79.9449 38.4115 79.0489 35.9248 78.7155 35.4602Z" fill="#5B320D"/>
</svg>
